<svg width="245" height="57" viewBox="0 0 245 57" fill="none" xmlns="http://www.w3.org/2000/svg">
<g filter="url(#filter0_f_7_14)">
<rect x="4" y="4" width="185.689" height="45" rx="22.5" fill="url(#paint0_radial_7_14)" fill-opacity="0.25"/>
</g>
<path d="M52.3202 15.6875C52.4113 15.7656 52.4569 15.8568 52.4569 15.9609C52.4569 16.2214 52.2486 16.3516 51.8319 16.3516C51.7538 16.3516 51.6301 16.3385 51.4608 16.3125C51.3046 16.2865 51.1809 16.2734 51.0897 16.2734C50.4777 16.2734 49.8593 16.8724 49.2343 18.0703C46.6952 22.9922 45.0415 29.1185 44.2733 36.4492C44.5728 35.8893 44.9699 35.1406 45.4647 34.2031C45.608 33.9167 45.7837 33.7734 45.9921 33.7734C46.2395 33.7734 46.3632 33.9362 46.3632 34.2617C46.3632 34.418 46.3176 34.6003 46.2264 34.8086C45.6535 36.1628 45.1262 38.1094 44.6444 40.6484C44.5272 41.2083 44.2733 41.4883 43.8827 41.4883C43.44 41.4883 42.7694 41.1497 41.871 40.4727C41.4413 40.1471 41.1939 39.8867 41.1288 39.6914C41.0507 39.5091 41.0572 39.1315 41.1483 38.5586C41.6171 35.7331 42.2225 32.5495 42.9647 29.0078C43.8241 24.9583 44.4491 22.569 44.8397 21.8398C43.4725 23.4544 41.7928 25.8242 39.8007 28.9492C37.8475 32.0221 36.1418 34.9453 34.6835 37.7188C34.9439 38.526 35.0741 39.1315 35.0741 39.5352C35.0741 40.043 34.6444 40.694 33.785 41.4883C33.3423 41.9049 33.0494 42.1133 32.9061 42.1133C32.7629 42.1133 32.3788 41.5924 31.7538 40.5508C31.4803 40.1081 31.3436 39.7565 31.3436 39.4961C31.3436 39.3138 31.5324 38.8711 31.91 38.168C31.0767 35.069 29.5598 31.293 27.3593 26.8398C25.953 30.3815 24.5272 33.6107 23.0819 36.5273C24.0194 37.582 24.4882 38.2917 24.4882 38.6562C24.4882 38.9427 24.1626 39.125 23.5116 39.2031C22.1444 39.3594 20.9986 40.0625 20.0741 41.3125C19.996 41.7161 19.8007 41.918 19.4882 41.918C19.0455 41.918 18.3619 41.5208 17.4374 40.7266C17.1509 40.4792 17.0077 40.2773 17.0077 40.1211C17.0077 39.9779 17.1249 39.8021 17.3593 39.5938C18.2316 38.8385 19.2277 38.1094 20.3475 37.4062C22.7694 33.3828 24.7421 29.151 26.2655 24.7109C24.677 21.2214 22.7043 18.7865 20.3475 17.4062C19.9569 17.1719 19.5858 17.0547 19.2343 17.0547C18.7395 17.0547 18.2186 17.3086 17.6718 17.8164C17.1639 18.3633 16.6561 18.9167 16.1483 19.4766C15.8619 19.8021 15.5689 19.9648 15.2694 19.9648C15.035 19.9648 14.9178 19.8477 14.9178 19.6133C14.9178 19.4961 14.9569 19.3594 15.035 19.2031C16.7928 15.6745 18.4725 13.9427 20.0741 14.0078C21.9751 14.0729 24.4426 16.4297 27.4764 21.0781C28.2186 19.3854 28.5897 17.8555 28.5897 16.4883C28.5897 15.7852 28.6939 15.4336 28.9022 15.4336C29.0975 15.4336 29.5533 15.7135 30.2694 16.2734C30.4777 16.4427 30.5754 16.7943 30.5624 17.3281C30.5363 18.0052 29.9309 19.9779 28.746 23.2461C31.0376 27.6992 32.7759 31.7617 33.9608 35.4336C38.5572 27.8034 42.6913 21.8464 46.3632 17.5625C46.8189 16.5208 47.3788 15.4922 48.0428 14.4766C48.3293 14.0339 48.6744 13.8125 49.078 13.8125C49.69 13.8125 50.7707 14.4375 52.3202 15.6875ZM61.5389 28.6367C61.5129 29.7956 61.233 31.332 60.6991 33.2461C59.8527 36.2669 58.6548 38.6107 57.1053 40.2773C56.285 41.1628 55.3736 41.6055 54.371 41.6055C53.9803 41.6055 53.479 41.5208 52.8671 41.3516C51.6431 41.2734 50.647 40.8893 49.8788 40.1992C49.0455 39.444 48.6548 38.474 48.7069 37.2891C48.759 35.9089 49.2343 33.9818 50.1327 31.5078C51.1223 28.8125 52.1509 26.8724 53.2186 25.6875C53.7264 25.1146 54.1431 24.8281 54.4686 24.8281C54.9113 24.8281 55.6275 25.2839 56.6171 26.1953C56.8905 26.0651 57.4504 25.8242 58.2968 25.4727C58.7264 25.3294 59.052 25.2578 59.2733 25.2578C59.7811 25.2578 60.3475 25.7331 60.9725 26.6836C61.3762 27.2695 61.565 27.9206 61.5389 28.6367ZM59.2928 29.2031C59.384 28.3307 59.4296 27.7773 59.4296 27.543C59.4296 26.9961 59.2603 26.7227 58.9218 26.7227C58.7915 26.7227 58.6223 26.7487 58.4139 26.8008L55.3866 28.0312C55.035 28.1745 54.8332 28.2461 54.7811 28.2461C54.677 28.2461 54.5728 28.1224 54.4686 27.875C53.7134 28.7995 53.0103 30.1341 52.3593 31.8789C51.8514 33.2461 51.4999 34.4701 51.3046 35.5508C51.1613 36.2799 51.0897 36.944 51.0897 37.543C51.0897 39.5482 51.7082 40.5247 52.9452 40.4727C53.44 40.4596 53.9738 40.2643 54.5468 39.8867C55.6405 39.1445 56.6626 37.6602 57.6132 35.4336C58.5246 33.3372 59.0845 31.2604 59.2928 29.2031ZM78.5702 10.6875C78.7264 10.8047 78.8046 10.9349 78.8046 11.0781C78.8046 11.3385 78.6483 11.4688 78.3358 11.4688C78.2186 11.4688 78.0949 11.4297 77.9647 11.3516C77.3658 11.0391 76.9165 10.8828 76.6171 10.8828C75.8098 10.8828 74.9113 11.6836 73.9218 13.2852C70.4061 18.9753 67.8606 26.4427 66.285 35.6875C67.6392 33.3958 68.6483 31.7747 69.3124 30.8242C70.6665 28.8711 72.0728 27.237 73.5311 25.9219C74.2343 25.2839 74.8658 24.9648 75.4257 24.9648C75.7121 24.9648 76.1613 25.1471 76.7733 25.5117C77.9322 26.0586 78.4595 26.8854 78.3553 27.9922C78.134 30.5182 77.5025 32.9987 76.4608 35.4336C75.4452 37.8164 74.2408 39.6849 72.8475 41.0391C72.4569 41.4167 72.0533 41.6055 71.6366 41.6055C70.7902 41.6055 69.6184 40.6419 68.121 38.7148C67.9517 38.4935 67.8671 38.3047 67.8671 38.1484C67.8671 37.9531 67.9777 37.8555 68.1991 37.8555C68.4205 37.8555 68.6353 37.9466 68.8436 38.1289C69.6119 38.7799 70.2694 39.1055 70.8163 39.1055C71.3501 39.1055 71.8645 38.793 72.3593 38.168C73.2577 37.0221 74.0715 35.4661 74.8007 33.5C75.634 31.2865 76.0507 29.3073 76.0507 27.5625C76.0507 26.8854 75.8228 26.5469 75.3671 26.5469C75.1066 26.5469 74.8137 26.6836 74.4882 26.957C72.8866 28.3372 71.259 30.3034 69.6053 32.8555C67.8606 35.5768 66.591 38.2005 65.7968 40.7266C65.6535 41.2083 65.4712 41.4492 65.2499 41.4492C65.1457 41.4492 65.009 41.3906 64.8397 41.2734C64.1757 40.8307 63.7981 40.5703 63.7069 40.4922C63.4465 40.2318 63.3163 39.8932 63.3163 39.4766C63.3163 39.2682 63.3488 39.0143 63.4139 38.7148C64.9374 30.4206 66.8905 23.3568 69.2733 17.5234C71.0702 13.1354 72.6848 10.2839 74.1171 8.96875C74.4947 8.61719 74.8593 8.44141 75.2108 8.44141C75.5754 8.44141 76.0376 8.65625 76.5975 9.08594C77.2486 9.61979 77.9061 10.1536 78.5702 10.6875ZM87.9647 19.1641C88.1731 19.3203 88.2772 19.4961 88.2772 19.6914C88.2772 20.069 87.7173 20.6549 86.5975 21.4492C85.8553 21.957 85.1392 22.1393 84.4491 21.9961C84.0585 21.918 83.7199 21.7747 83.4335 21.5664C83.3423 21.4883 83.2707 21.4102 83.2186 21.332C83.1796 21.2409 83.1731 21.1693 83.1991 21.1172C83.2382 21.0651 83.3163 21.0521 83.4335 21.0781C84.6314 20.0365 85.4191 19.2878 85.7968 18.832C86.0962 18.4935 86.3111 18.3242 86.4413 18.3242C86.6757 18.3242 87.1835 18.6042 87.9647 19.1641ZM85.2108 27.7188C84.8983 29.4766 84.0845 32.3997 82.7694 36.4883C83.147 36.1497 83.6678 35.5312 84.3319 34.6328C84.4231 34.5156 84.5142 34.457 84.6053 34.457C84.8137 34.457 84.8397 34.6393 84.6835 35.0039C84.6184 35.1471 84.0715 36.0391 83.0428 37.6797C82.2616 38.9297 81.6887 40.0365 81.3241 41C81.2069 41.2995 80.9921 41.4492 80.6796 41.4492C80.3671 41.4492 79.9439 41.2995 79.41 41C79.0715 40.8177 78.9022 40.681 78.9022 40.5898C78.9022 40.5117 78.9738 40.3424 79.1171 40.082C79.8202 38.8451 80.6014 36.7747 81.4608 33.8711C82.2811 31.0586 82.7434 28.9688 82.8475 27.6016C82.8866 27.0156 82.828 26.7227 82.6718 26.7227C82.5546 26.7227 82.3462 26.8659 82.0468 27.1523L80.8358 28.2852C80.4061 28.6758 80.1913 28.6953 80.1913 28.3438C80.1913 28.2396 80.2499 28.1094 80.3671 27.9531C80.979 27.0938 81.6301 26.2799 82.3202 25.5117C82.5285 25.2904 82.7303 25.1797 82.9257 25.1797C83.134 25.1797 83.44 25.3229 83.8436 25.6094C84.4426 25.7656 84.7746 25.8633 84.8397 25.9023C85.1392 26.0846 85.2889 26.4232 85.2889 26.918C85.2889 27.1523 85.2629 27.4193 85.2108 27.7188Z" fill="black"/>
<path d="M117.185 16.0781C117.211 16.1953 117.224 16.2995 117.224 16.3906C117.224 16.7682 116.99 17.0221 116.521 17.1523C116.495 17.1654 116.045 17.237 115.173 17.3672C112.868 17.6927 110.499 17.9596 108.064 18.168C107.035 20.3685 105.772 23.9362 104.275 28.8711C102.894 33.3763 101.879 37.1393 101.228 40.1602C101.006 41.1367 100.681 41.625 100.251 41.625C99.9778 41.625 99.4244 41.4818 98.5911 41.1953C98.2916 41.1042 98.1288 40.9284 98.1028 40.668C98.1288 40.9284 98.1418 40.5312 98.1418 39.4766C98.1418 37.5625 98.4478 35.8177 99.0598 34.2422C99.2942 33.6562 99.5546 33.3633 99.8411 33.3633C99.9192 33.3633 100.069 33.3958 100.29 33.4609C100.525 33.513 100.713 33.5456 100.857 33.5586C101.208 32.2305 102.042 29.6068 103.357 25.6875C104.841 21.2604 105.648 18.832 105.779 18.4023C103.773 18.5586 101.768 18.8711 99.7629 19.3398C97.5364 19.8867 96.078 20.4661 95.3879 21.0781C94.6067 21.7812 94.2161 22.4779 94.2161 23.168C94.2161 23.9102 94.6458 25.069 95.5051 26.6445C95.5963 26.8138 95.6418 26.9701 95.6418 27.1133C95.6418 27.4388 95.4921 27.6016 95.1926 27.6016C94.9843 27.6016 94.7955 27.4779 94.6262 27.2305C93.5976 25.7591 92.927 24.6133 92.6145 23.793C92.3931 23.2201 92.2369 22.3932 92.1458 21.3125C92.0025 19.724 93.3111 18.5521 96.0715 17.7969C99.6653 16.8203 103.292 16.1693 106.95 15.8438C107.367 14.9974 107.673 14.5742 107.868 14.5742C108.168 14.5742 108.676 14.8997 109.392 15.5508C109.73 15.5508 110.779 15.4206 112.536 15.1602C112.849 15.1081 113.168 14.8802 113.493 14.4766C113.78 14.099 114.463 13.8841 115.544 13.832C116.13 13.806 116.534 14.0273 116.755 14.4961C116.794 14.5612 116.937 15.0885 117.185 16.0781ZM124.841 26.3125C124.841 28.0182 124.613 29.6458 124.157 31.1953C124.014 31.6641 123.819 31.8984 123.572 31.8984C123.389 31.8984 122.986 31.638 122.361 31.1172C122.048 30.8568 121.97 30.4857 122.126 30.0039C122.491 28.819 122.673 27.8685 122.673 27.1523C122.673 26.9049 122.621 26.7812 122.517 26.7812C122.361 26.7812 122.107 27.0156 121.755 27.4844C119.047 31.013 117.022 34.9714 115.681 39.3594C115.251 40.7526 114.887 41.4492 114.587 41.4492C114.47 41.4492 113.956 41.2214 113.044 40.7656C112.601 40.5443 112.452 40.1146 112.595 39.4766C113.624 34.9714 114.73 31.1693 115.915 28.0703C114.952 29.0859 114.34 29.7826 114.079 30.1602C113.975 30.3164 113.832 30.3945 113.65 30.3945C113.428 30.3945 113.318 30.2969 113.318 30.1016C113.318 29.9844 113.37 29.8542 113.474 29.7109C114.112 28.9427 114.965 27.7708 116.032 26.1953C116.358 25.6224 116.684 25.3359 117.009 25.3359C117.243 25.3359 117.719 25.5182 118.435 25.8828C118.838 26.0911 118.904 26.3711 118.63 26.7227C118.344 27.1003 117.803 28.4349 117.009 30.7266C116.254 32.9531 115.733 34.6979 115.447 35.9609C117.217 32.0156 119.229 28.5326 121.482 25.5117C121.911 24.9388 122.256 24.6523 122.517 24.6523C122.751 24.6523 123.07 24.8086 123.474 25.1211C124.021 25.1862 124.366 25.2708 124.509 25.375C124.73 25.5312 124.841 25.8438 124.841 26.3125ZM135.251 35.4336C132.087 39.4831 129.861 41.5078 128.572 41.5078C127.96 41.5078 127.185 41.0846 126.247 40.2383C125.271 39.7826 124.782 39.1706 124.782 38.4023C124.782 38.2591 124.795 38.1094 124.822 37.9531C125.056 36.1693 125.531 34.1966 126.247 32.0352C125.766 31.7878 125.525 31.5534 125.525 31.332C125.525 31.1497 125.661 31.0586 125.935 31.0586C126.143 31.0586 126.358 31.1172 126.579 31.2344C127.738 28.6302 128.78 26.7812 129.704 25.6875C130.303 24.9583 130.844 24.5938 131.325 24.5938C131.547 24.5938 132.094 24.7826 132.966 25.1602C132.901 24.7695 133.012 24.5417 133.298 24.4766C133.311 24.4766 133.617 24.4766 134.216 24.4766C134.776 24.4766 135.056 24.5742 135.056 24.7695C135.056 24.8086 135.036 24.9193 134.997 25.1016C134.958 25.2839 134.939 25.4531 134.939 25.6094C134.939 26.0781 134.945 26.6576 134.958 27.3477C134.971 28.0378 134.978 28.5 134.978 28.7344C134.978 30.349 134.535 31.4753 133.65 32.1133C132.842 32.6992 131.931 32.9922 130.915 32.9922C130.381 32.9922 129.496 32.849 128.259 32.5625C128.038 32.9661 127.79 33.7539 127.517 34.9258C127.152 36.4102 126.983 37.7253 127.009 38.8711C127.022 39.5482 127.237 39.8867 127.654 39.8867C127.81 39.8867 128.012 39.8477 128.259 39.7695C129.769 39.2357 131.872 37.6081 134.568 34.8867C134.737 34.7174 134.906 34.6328 135.075 34.6328C135.323 34.6328 135.447 34.75 135.447 34.9844C135.447 35.1276 135.381 35.2773 135.251 35.4336ZM132.966 26.8008C132.966 26.293 132.855 26.0391 132.634 26.0391C132.491 26.0391 132.282 26.1432 132.009 26.3516C130.733 27.3802 129.613 29.1836 128.65 31.7617C128.91 31.8008 129.366 31.8398 130.017 31.8789C131.072 31.918 131.859 31.6771 132.38 31.1562C132.771 30.7656 132.986 30.1211 133.025 29.2227C132.986 29.8867 132.966 29.0794 132.966 26.8008ZM151.618 34.0469C150.837 35.2318 149.822 36.9505 148.572 39.2031C148.337 39.7891 148.109 40.375 147.888 40.9609C147.706 41.3646 147.465 41.5664 147.165 41.5664C146.931 41.5664 146.586 41.4688 146.13 41.2734C145.622 41.0651 145.368 40.8568 145.368 40.6484C145.368 40.5573 145.453 40.3555 145.622 40.043C146.469 38.3242 147.224 36.1823 147.888 33.6172C148.604 30.9219 148.91 28.8646 148.806 27.4453C148.78 26.8724 148.65 26.5859 148.415 26.5859C148.246 26.5859 147.992 26.7487 147.654 27.0742C144.372 30.2773 141.534 34.5612 139.138 39.9258C138.838 40.5898 138.487 40.9219 138.083 40.9219C137.797 40.9219 137.322 40.7591 136.657 40.4336C136.397 40.3164 136.26 40.2057 136.247 40.1016C136.247 40.0495 136.319 39.8672 136.462 39.5547C137.217 37.901 137.966 35.8047 138.708 33.2656C139.503 30.5182 139.952 28.3763 140.056 26.8398C140.082 26.3711 140.069 26.1367 140.017 26.1367C140.004 26.1367 139.822 26.3125 139.47 26.6641C139.118 27.0156 138.63 27.4714 138.005 28.0312C137.888 28.1484 137.758 28.207 137.615 28.207C137.432 28.207 137.341 28.1354 137.341 27.9922C137.341 27.888 137.406 27.7708 137.536 27.6406C138.096 26.9245 138.832 26.0326 139.743 24.9648C139.939 24.7435 140.141 24.6328 140.349 24.6328C140.661 24.6328 140.935 24.8607 141.169 25.3164C142.224 25.6289 142.719 26.1107 142.654 26.7617C142.51 28.194 141.775 30.7786 140.447 34.5156C141.319 32.8359 142.588 30.9609 144.255 28.8906C145.922 26.8073 147.159 25.5768 147.966 25.1992C148.37 25.0169 148.656 24.9258 148.825 24.9258C148.995 24.9258 149.268 25.069 149.646 25.3555C150.726 25.7331 151.26 26.3581 151.247 27.2305C151.247 28.1419 151.026 29.6068 150.583 31.625C150.232 33.2917 149.906 34.5872 149.607 35.5117C149.984 35.0299 150.466 34.4049 151.052 33.6367C151.156 33.5065 151.26 33.4414 151.365 33.4414C151.56 33.4414 151.657 33.5651 151.657 33.8125C151.657 33.8906 151.644 33.9688 151.618 34.0469ZM177.693 10.6875C177.849 10.8047 177.927 10.9349 177.927 11.0781C177.927 11.3255 177.771 11.4492 177.458 11.4492C177.341 11.4492 177.217 11.4167 177.087 11.3516C176.475 11.0521 176.019 10.9023 175.72 10.9023C174.913 10.9023 174.021 11.6966 173.044 13.2852C169.463 19.1315 166.853 26.918 165.212 36.6445C165.551 36.319 166.006 35.8112 166.579 35.1211C166.918 34.7174 167.165 34.5156 167.322 34.5156C167.673 34.5156 167.706 34.7174 167.419 35.1211C166.169 36.8529 165.342 38.7214 164.939 40.7266C164.782 41.2083 164.587 41.4492 164.353 41.4492C164.236 41.4492 164.092 41.3906 163.923 41.2734C163.272 40.8307 162.907 40.5703 162.829 40.4922C162.569 40.2448 162.439 39.9128 162.439 39.4961C162.439 39.2747 162.471 39.0143 162.536 38.7148C163.096 35.707 163.559 33.4674 163.923 31.9961C162.647 33.832 161.202 35.668 159.587 37.5039C157.986 39.3268 156.82 40.4792 156.091 40.9609C155.531 41.3385 155.115 41.5273 154.841 41.5273C154.607 41.5273 154.249 41.3385 153.767 40.9609C152.92 40.4401 152.497 39.8346 152.497 39.1445C152.497 39.0273 152.51 38.8971 152.536 38.7539C152.81 36.8138 153.676 34.5677 155.134 32.0156C156.605 29.4505 158.285 27.2956 160.173 25.5508C160.785 24.9779 161.332 24.6979 161.814 24.7109C162.322 24.737 163.226 25.3555 164.529 26.5664C164.646 26.6706 164.704 26.7812 164.704 26.8984C164.704 27.1068 164.568 27.2109 164.294 27.2109C164.203 27.2109 164.105 27.1914 164.001 27.1523C163.09 26.7617 162.348 26.7747 161.775 27.1914C160.551 28.1029 159.203 29.6849 157.732 31.9375C156.026 34.5417 155.023 36.8854 154.724 38.9688C154.659 39.4635 154.789 39.7109 155.115 39.7109C155.544 39.7109 156.072 39.4049 156.697 38.793C158.142 37.3737 159.698 35.5898 161.365 33.4414C163.07 31.2148 164.164 29.5352 164.646 28.4023C164.919 27.7773 165.134 27.1784 165.29 26.6055C166.644 21.8138 168.155 17.7188 169.822 14.3203C171.124 11.6641 172.269 9.88021 173.259 8.96875C173.624 8.61719 173.975 8.44141 174.314 8.44141C174.678 8.44141 175.147 8.65625 175.72 9.08594C176.371 9.61979 177.029 10.1536 177.693 10.6875Z" fill="#F52500"/>
<defs>
<filter id="filter0_f_7_14" x="0" y="0" width="193.689" height="53" filterUnits="userSpaceOnUse" color-interpolation-filters="sRGB">
<feFlood flood-opacity="0" result="BackgroundImageFix"/>
<feBlend mode="normal" in="SourceGraphic" in2="BackgroundImageFix" result="shape"/>
<feGaussianBlur stdDeviation="2" result="effect1_foregroundBlur_7_14"/>
</filter>
<radialGradient id="paint0_radial_7_14" cx="0" cy="0" r="1" gradientUnits="userSpaceOnUse" gradientTransform="translate(96.8442 26.5) rotate(5.83232) scale(167.294 707.44)">
<stop/>
<stop offset="1" stop-color="#FBF3F3" stop-opacity="0"/>
</radialGradient>
</defs>
</svg>
