<svg width="236" height="50" viewBox="0 0 236 50" fill="none" xmlns="http://www.w3.org/2000/svg">
<g filter="url(#filter0_d_7_14)">
<path d="M49.6875 9.625C49.7969 9.71875 49.8516 9.82813 49.8516 9.95312C49.8516 10.2656 49.6016 10.4219 49.1016 10.4219C49.0078 10.4219 48.8594 10.4062 48.6562 10.375C48.4688 10.3438 48.3203 10.3281 48.2109 10.3281C47.4766 10.3281 46.7344 11.0469 45.9844 12.4844C42.9375 18.3906 40.9531 25.7422 40.0312 34.5391C40.3906 33.8672 40.8672 32.9688 41.4609 31.8438C41.6328 31.5 41.8438 31.3281 42.0938 31.3281C42.3906 31.3281 42.5391 31.5234 42.5391 31.9141C42.5391 32.1016 42.4844 32.3203 42.375 32.5703C41.6875 34.1953 41.0547 36.5312 40.4766 39.5781C40.3359 40.25 40.0312 40.5859 39.5625 40.5859C39.0312 40.5859 38.2266 40.1797 37.1484 39.3672C36.6328 38.9766 36.3359 38.6641 36.2578 38.4297C36.1641 38.2109 36.1719 37.7578 36.2812 37.0703C36.8438 33.6797 37.5703 29.8594 38.4609 25.6094C39.4922 20.75 40.2422 17.8828 40.7109 17.0078C39.0703 18.9453 37.0547 21.7891 34.6641 25.5391C32.3203 29.2266 30.2734 32.7344 28.5234 36.0625C28.8359 37.0312 28.9922 37.7578 28.9922 38.2422C28.9922 38.8516 28.4766 39.6328 27.4453 40.5859C26.9141 41.0859 26.5625 41.3359 26.3906 41.3359C26.2188 41.3359 25.7578 40.7109 25.0078 39.4609C24.6797 38.9297 24.5156 38.5078 24.5156 38.1953C24.5156 37.9766 24.7422 37.4453 25.1953 36.6016C24.1953 32.8828 22.375 28.3516 19.7344 23.0078C18.0469 27.2578 16.3359 31.1328 14.6016 34.6328C15.7266 35.8984 16.2891 36.75 16.2891 37.1875C16.2891 37.5312 15.8984 37.75 15.1172 37.8438C13.4766 38.0312 12.1016 38.875 10.9922 40.375C10.8984 40.8594 10.6641 41.1016 10.2891 41.1016C9.75781 41.1016 8.9375 40.625 7.82812 39.6719C7.48438 39.375 7.3125 39.1328 7.3125 38.9453C7.3125 38.7734 7.45312 38.5625 7.73438 38.3125C8.78125 37.4062 9.97656 36.5312 11.3203 35.6875C14.2266 30.8594 16.5938 25.7812 18.4219 20.4531C16.5156 16.2656 14.1484 13.3438 11.3203 11.6875C10.8516 11.4062 10.4062 11.2656 9.98438 11.2656C9.39062 11.2656 8.76562 11.5703 8.10938 12.1797C7.5 12.8359 6.89062 13.5 6.28125 14.1719C5.9375 14.5625 5.58594 14.7578 5.22656 14.7578C4.94531 14.7578 4.80469 14.6172 4.80469 14.3359C4.80469 14.1953 4.85156 14.0312 4.94531 13.8438C7.05469 9.60937 9.07031 7.53125 10.9922 7.60938C13.2734 7.6875 16.2344 10.5156 19.875 16.0938C20.7656 14.0625 21.2109 12.2266 21.2109 10.5859C21.2109 9.74219 21.3359 9.32031 21.5859 9.32031C21.8203 9.32031 22.3672 9.65625 23.2266 10.3281C23.4766 10.5313 23.5938 10.9531 23.5781 11.5938C23.5469 12.4063 22.8203 14.7734 21.3984 18.6953C24.1484 24.0391 26.2344 28.9141 27.6562 33.3203C33.1719 24.1641 38.1328 17.0156 42.5391 11.875C43.0859 10.625 43.7578 9.39062 44.5547 8.17188C44.8984 7.64062 45.3125 7.375 45.7969 7.375C46.5312 7.375 47.8281 8.125 49.6875 9.625ZM59.79 25.1641C59.7588 26.5547 59.4228 28.3984 58.7822 30.6953C57.7666 34.3203 56.3291 37.1328 54.4697 39.1328C53.4853 40.1953 52.3916 40.7266 51.1884 40.7266C50.7197 40.7266 50.1181 40.625 49.3838 40.4219C47.915 40.3281 46.7197 39.8672 45.7978 39.0391C44.7978 38.1328 44.3291 36.9688 44.3916 35.5469C44.4541 33.8906 45.0244 31.5781 46.1025 28.6094C47.29 25.375 48.5244 23.0469 49.8056 21.625C50.415 20.9375 50.915 20.5938 51.3056 20.5938C51.8369 20.5938 52.6963 21.1406 53.8838 22.2344C54.2119 22.0781 54.8838 21.7891 55.8994 21.3672C56.415 21.1953 56.8056 21.1094 57.0713 21.1094C57.6806 21.1094 58.3603 21.6797 59.1103 22.8203C59.5947 23.5234 59.8213 24.3047 59.79 25.1641ZM57.0947 25.8438C57.2041 24.7969 57.2588 24.1328 57.2588 23.8516C57.2588 23.1953 57.0556 22.8672 56.6494 22.8672C56.4931 22.8672 56.29 22.8984 56.04 22.9609L52.4072 24.4375C51.9853 24.6094 51.7431 24.6953 51.6806 24.6953C51.5556 24.6953 51.4306 24.5469 51.3056 24.25C50.3994 25.3594 49.5556 26.9609 48.7744 29.0547C48.165 30.6953 47.7431 32.1641 47.5088 33.4609C47.3369 34.3359 47.2509 35.1328 47.2509 35.8516C47.2509 38.2578 47.9931 39.4297 49.4775 39.3672C50.0713 39.3516 50.7119 39.1172 51.3994 38.6641C52.7119 37.7734 53.9384 35.9922 55.0791 33.3203C56.1728 30.8047 56.8447 28.3125 57.0947 25.8438ZM79.2675 3.625C79.455 3.76562 79.5488 3.92188 79.5488 4.09375C79.5488 4.40625 79.3613 4.5625 78.9863 4.5625C78.8456 4.5625 78.6972 4.51562 78.5409 4.42188C77.8222 4.04688 77.2831 3.85938 76.9238 3.85938C75.955 3.85938 74.8769 4.82031 73.6894 6.74219C69.4706 13.5703 66.4159 22.5312 64.5253 33.625C66.1503 30.875 67.3613 28.9297 68.1581 27.7891C69.7831 25.4453 71.4706 23.4844 73.2206 21.9062C74.0644 21.1406 74.8222 20.7578 75.4941 20.7578C75.8378 20.7578 76.3769 20.9766 77.1113 21.4141C78.5019 22.0703 79.1347 23.0625 79.0097 24.3906C78.7441 27.4219 77.9863 30.3984 76.7363 33.3203C75.5175 36.1797 74.0722 38.4219 72.4003 40.0469C71.9316 40.5 71.4472 40.7266 70.9472 40.7266C69.9316 40.7266 68.5253 39.5703 66.7284 37.2578C66.5253 36.9922 66.4238 36.7656 66.4238 36.5781C66.4238 36.3438 66.5566 36.2266 66.8222 36.2266C67.0878 36.2266 67.3456 36.3359 67.5956 36.5547C68.5175 37.3359 69.3066 37.7266 69.9628 37.7266C70.6034 37.7266 71.2206 37.3516 71.8144 36.6016C72.8925 35.2266 73.8691 33.3594 74.7441 31C75.7441 28.3438 76.2441 25.9688 76.2441 23.875C76.2441 23.0625 75.9706 22.6562 75.4238 22.6562C75.1113 22.6562 74.7597 22.8203 74.3691 23.1484C72.4472 24.8047 70.4941 27.1641 68.5097 30.2266C66.4159 33.4922 64.8925 36.6406 63.9394 39.6719C63.7675 40.25 63.5488 40.5391 63.2831 40.5391C63.1581 40.5391 62.9941 40.4688 62.7909 40.3281C61.9941 39.7969 61.5409 39.4844 61.4316 39.3906C61.1191 39.0781 60.9628 38.6719 60.9628 38.1719C60.9628 37.9219 61.0019 37.6172 61.08 37.2578C62.9081 27.3047 65.2519 18.8281 68.1113 11.8281C70.2675 6.5625 72.205 3.14062 73.9238 1.5625C74.3769 1.14062 74.8144 0.929688 75.2363 0.929688C75.6738 0.929688 76.2284 1.1875 76.9003 1.70312C77.6816 2.34375 78.4706 2.98438 79.2675 3.625ZM89.5809 13.7969C89.8309 13.9844 89.9559 14.1953 89.9559 14.4297C89.9559 14.8828 89.2841 15.5859 87.9403 16.5391C87.0497 17.1484 86.1903 17.3672 85.3622 17.1953C84.8934 17.1016 84.4872 16.9297 84.1434 16.6797C84.0341 16.5859 83.9481 16.4922 83.8856 16.3984C83.8388 16.2891 83.8309 16.2031 83.8622 16.1406C83.9091 16.0781 84.0028 16.0625 84.1434 16.0938C85.5809 14.8438 86.5263 13.9453 86.9794 13.3984C87.3388 12.9922 87.5966 12.7891 87.7528 12.7891C88.0341 12.7891 88.6434 13.125 89.5809 13.7969ZM86.2763 24.0625C85.9013 26.1719 84.9247 29.6797 83.3466 34.5859C83.7997 34.1797 84.4247 33.4375 85.2216 32.3594C85.3309 32.2188 85.4403 32.1484 85.5497 32.1484C85.7997 32.1484 85.8309 32.3672 85.6434 32.8047C85.5653 32.9766 84.9091 34.0469 83.6747 36.0156C82.7372 37.5156 82.0497 38.8438 81.6122 40C81.4716 40.3594 81.2138 40.5391 80.8388 40.5391C80.4638 40.5391 79.9559 40.3594 79.3153 40C78.9091 39.7812 78.7059 39.6172 78.7059 39.5078C78.7059 39.4141 78.7919 39.2109 78.9638 38.8984C79.8075 37.4141 80.745 34.9297 81.7763 31.4453C82.7606 28.0703 83.3153 25.5625 83.4403 23.9219C83.4872 23.2188 83.4169 22.8672 83.2294 22.8672C83.0888 22.8672 82.8388 23.0391 82.4794 23.3828L81.0263 24.7422C80.5106 25.2109 80.2528 25.2344 80.2528 24.8125C80.2528 24.6875 80.3231 24.5312 80.4638 24.3438C81.1981 23.3125 81.9794 22.3359 82.8075 21.4141C83.0575 21.1484 83.2997 21.0156 83.5341 21.0156C83.7841 21.0156 84.1513 21.1875 84.6356 21.5312C85.3544 21.7188 85.7528 21.8359 85.8309 21.8828C86.1903 22.1016 86.37 22.5078 86.37 23.1016C86.37 23.3828 86.3388 23.7031 86.2763 24.0625Z" fill="white"/>
</g>
<g filter="url(#filter1_d_7_14)">
<path d="M123.024 10.0938C123.055 10.2344 123.071 10.3594 123.071 10.4688C123.071 10.9219 122.789 11.2266 122.227 11.3828C122.196 11.3984 121.656 11.4844 120.61 11.6406C117.844 12.0313 115 12.3516 112.078 12.6016C110.844 15.2422 109.328 19.5234 107.531 25.4453C105.875 30.8516 104.656 35.3672 103.875 38.9922C103.61 40.1641 103.219 40.75 102.703 40.75C102.375 40.75 101.711 40.5781 100.711 40.2344C100.352 40.125 100.156 39.9141 100.125 39.6016C100.156 39.9141 100.172 39.4375 100.172 38.1719C100.172 35.875 100.539 33.7812 101.274 31.8906C101.555 31.1875 101.867 30.8359 102.211 30.8359C102.305 30.8359 102.485 30.875 102.75 30.9531C103.031 31.0156 103.258 31.0547 103.43 31.0703C103.852 29.4766 104.852 26.3281 106.43 21.625C108.211 16.3125 109.18 13.3984 109.336 12.8828C106.93 13.0703 104.524 13.4453 102.117 14.0078C99.4456 14.6641 97.6956 15.3594 96.8674 16.0938C95.9299 16.9375 95.4612 17.7734 95.4612 18.6016C95.4612 19.4922 95.9768 20.8828 97.0081 22.7734C97.1174 22.9766 97.1721 23.1641 97.1721 23.3359C97.1721 23.7266 96.9924 23.9219 96.6331 23.9219C96.3831 23.9219 96.1565 23.7734 95.9534 23.4766C94.719 21.7109 93.9143 20.3359 93.5393 19.3516C93.2737 18.6641 93.0862 17.6719 92.9768 16.375C92.8049 14.4688 94.3752 13.0625 97.6877 12.1562C102 10.9844 106.352 10.2031 110.742 9.8125C111.242 8.79688 111.61 8.28906 111.844 8.28906C112.203 8.28906 112.813 8.67969 113.672 9.46094C114.078 9.46094 115.336 9.30469 117.446 8.99219C117.821 8.92969 118.203 8.65625 118.594 8.17188C118.938 7.71875 119.758 7.46094 121.055 7.39844C121.758 7.36719 122.242 7.63281 122.508 8.19531C122.555 8.27344 122.727 8.90625 123.024 10.0938ZM131.251 22.375C131.251 24.4219 130.978 26.375 130.431 28.2344C130.259 28.7969 130.025 29.0781 129.728 29.0781C129.509 29.0781 129.025 28.7656 128.275 28.1406C127.9 27.8281 127.806 27.3828 127.993 26.8047C128.431 25.3828 128.65 24.2422 128.65 23.3828C128.65 23.0859 128.587 22.9375 128.462 22.9375C128.275 22.9375 127.97 23.2188 127.548 23.7812C124.298 28.0156 121.868 32.7656 120.259 38.0312C119.743 39.7031 119.306 40.5391 118.946 40.5391C118.806 40.5391 118.189 40.2656 117.095 39.7188C116.564 39.4531 116.384 38.9375 116.556 38.1719C117.79 32.7656 119.118 28.2031 120.54 24.4844C119.384 25.7031 118.65 26.5391 118.337 26.9922C118.212 27.1797 118.04 27.2734 117.821 27.2734C117.556 27.2734 117.423 27.1562 117.423 26.9219C117.423 26.7812 117.486 26.625 117.611 26.4531C118.376 25.5312 119.4 24.125 120.681 22.2344C121.071 21.5469 121.462 21.2031 121.853 21.2031C122.134 21.2031 122.704 21.4219 123.564 21.8594C124.048 22.1094 124.126 22.4453 123.798 22.8672C123.454 23.3203 122.806 24.9219 121.853 27.6719C120.946 30.3438 120.321 32.4375 119.978 33.9531C122.103 29.2188 124.517 25.0391 127.22 21.4141C127.736 20.7266 128.15 20.3828 128.462 20.3828C128.743 20.3828 129.126 20.5703 129.611 20.9453C130.267 21.0234 130.681 21.125 130.853 21.25C131.118 21.4375 131.251 21.8125 131.251 22.375ZM142.783 33.3203C138.986 38.1797 136.315 40.6094 134.768 40.6094C134.033 40.6094 133.104 40.1016 131.979 39.0859C130.807 38.5391 130.221 37.8047 130.221 36.8828C130.221 36.7109 130.236 36.5312 130.268 36.3438C130.549 34.2031 131.119 31.8359 131.979 29.2422C131.401 28.9453 131.111 28.6641 131.111 28.3984C131.111 28.1797 131.276 28.0703 131.604 28.0703C131.854 28.0703 132.111 28.1406 132.377 28.2812C133.768 25.1562 135.018 22.9375 136.127 21.625C136.846 20.75 137.494 20.3125 138.072 20.3125C138.338 20.3125 138.994 20.5391 140.041 20.9922C139.963 20.5234 140.096 20.25 140.44 20.1719C140.455 20.1719 140.822 20.1719 141.541 20.1719C142.213 20.1719 142.549 20.2891 142.549 20.5234C142.549 20.5703 142.526 20.7031 142.479 20.9219C142.432 21.1406 142.408 21.3438 142.408 21.5312C142.408 22.0938 142.416 22.7891 142.432 23.6172C142.447 24.4453 142.455 25 142.455 25.2812C142.455 27.2188 141.924 28.5703 140.861 29.3359C139.893 30.0391 138.799 30.3906 137.58 30.3906C136.94 30.3906 135.877 30.2188 134.393 29.875C134.127 30.3594 133.83 31.3047 133.502 32.7109C133.065 34.4922 132.861 36.0703 132.893 37.4453C132.908 38.2578 133.166 38.6641 133.666 38.6641C133.854 38.6641 134.096 38.6172 134.393 38.5234C136.205 37.8828 138.729 35.9297 141.963 32.6641C142.166 32.4609 142.369 32.3594 142.572 32.3594C142.869 32.3594 143.018 32.5 143.018 32.7812C143.018 32.9531 142.94 33.1328 142.783 33.3203ZM140.041 22.9609C140.041 22.3516 139.908 22.0469 139.643 22.0469C139.471 22.0469 139.221 22.1719 138.893 22.4219C137.361 23.6562 136.018 25.8203 134.861 28.9141C135.174 28.9609 135.721 29.0078 136.502 29.0547C137.768 29.1016 138.713 28.8125 139.338 28.1875C139.807 27.7188 140.065 26.9453 140.111 25.8672C140.065 26.6641 140.041 25.6953 140.041 22.9609ZM161.464 31.6562C160.526 33.0781 159.308 35.1406 157.808 37.8438C157.526 38.5469 157.253 39.25 156.987 39.9531C156.769 40.4375 156.48 40.6797 156.12 40.6797C155.839 40.6797 155.425 40.5625 154.878 40.3281C154.269 40.0781 153.964 39.8281 153.964 39.5781C153.964 39.4688 154.066 39.2266 154.269 38.8516C155.284 36.7891 156.191 34.2188 156.987 31.1406C157.847 27.9062 158.214 25.4375 158.089 23.7344C158.058 23.0469 157.901 22.7031 157.62 22.7031C157.417 22.7031 157.112 22.8984 156.706 23.2891C152.769 27.1328 149.362 32.2734 146.487 38.7109C146.128 39.5078 145.706 39.9062 145.222 39.9062C144.878 39.9062 144.308 39.7109 143.511 39.3203C143.198 39.1797 143.034 39.0469 143.019 38.9219C143.019 38.8594 143.105 38.6406 143.276 38.2656C144.183 36.2812 145.081 33.7656 145.972 30.7188C146.925 27.4219 147.464 24.8516 147.589 23.0078C147.62 22.4453 147.605 22.1641 147.542 22.1641C147.526 22.1641 147.308 22.375 146.886 22.7969C146.464 23.2188 145.878 23.7656 145.128 24.4375C144.987 24.5781 144.831 24.6484 144.659 24.6484C144.441 24.6484 144.331 24.5625 144.331 24.3906C144.331 24.2656 144.409 24.125 144.566 23.9688C145.237 23.1094 146.12 22.0391 147.214 20.7578C147.448 20.4922 147.691 20.3594 147.941 20.3594C148.316 20.3594 148.644 20.6328 148.925 21.1797C150.191 21.5547 150.784 22.1328 150.706 22.9141C150.534 24.6328 149.651 27.7344 148.058 32.2188C149.105 30.2031 150.628 27.9531 152.628 25.4688C154.628 22.9688 156.112 21.4922 157.081 21.0391C157.566 20.8203 157.909 20.7109 158.112 20.7109C158.316 20.7109 158.644 20.8828 159.097 21.2266C160.394 21.6797 161.034 22.4297 161.019 23.4766C161.019 24.5703 160.753 26.3281 160.222 28.75C159.8 30.75 159.409 32.3047 159.05 33.4141C159.503 32.8359 160.081 32.0859 160.784 31.1641C160.909 31.0078 161.034 30.9297 161.159 30.9297C161.394 30.9297 161.511 31.0781 161.511 31.375C161.511 31.4688 161.495 31.5625 161.464 31.6562ZM191.793 3.625C191.981 3.76562 192.074 3.92188 192.074 4.09375C192.074 4.39063 191.887 4.53906 191.512 4.53906C191.371 4.53906 191.223 4.5 191.066 4.42188C190.332 4.0625 189.785 3.88281 189.426 3.88281C188.457 3.88281 187.387 4.83594 186.215 6.74219C181.918 13.7578 178.785 23.1016 176.816 34.7734C177.223 34.3828 177.77 33.7734 178.457 32.9453C178.863 32.4609 179.16 32.2188 179.348 32.2188C179.77 32.2188 179.809 32.4609 179.465 32.9453C177.965 35.0234 176.973 37.2656 176.488 39.6719C176.301 40.25 176.066 40.5391 175.785 40.5391C175.645 40.5391 175.473 40.4688 175.27 40.3281C174.488 39.7969 174.051 39.4844 173.957 39.3906C173.645 39.0938 173.488 38.6953 173.488 38.1953C173.488 37.9297 173.527 37.6172 173.606 37.2578C174.277 33.6484 174.832 30.9609 175.27 29.1953C173.738 31.3984 172.004 33.6016 170.066 35.8047C168.145 37.9922 166.746 39.375 165.871 39.9531C165.199 40.4062 164.699 40.6328 164.371 40.6328C164.09 40.6328 163.66 40.4062 163.082 39.9531C162.066 39.3281 161.559 38.6016 161.559 37.7734C161.559 37.6328 161.574 37.4766 161.606 37.3047C161.934 34.9766 162.973 32.2812 164.723 29.2188C166.488 26.1406 168.504 23.5547 170.77 21.4609C171.504 20.7734 172.16 20.4375 172.738 20.4531C173.348 20.4844 174.434 21.2266 175.996 22.6797C176.137 22.8047 176.207 22.9375 176.207 23.0781C176.207 23.3281 176.043 23.4531 175.715 23.4531C175.606 23.4531 175.488 23.4297 175.363 23.3828C174.27 22.9141 173.379 22.9297 172.691 23.4297C171.223 24.5234 169.606 26.4219 167.84 29.125C165.793 32.25 164.59 35.0625 164.231 37.5625C164.152 38.1562 164.309 38.4531 164.699 38.4531C165.215 38.4531 165.848 38.0859 166.598 37.3516C168.332 35.6484 170.199 33.5078 172.199 30.9297C174.246 28.2578 175.559 26.2422 176.137 24.8828C176.465 24.1328 176.723 23.4141 176.91 22.7266C178.535 16.9766 180.348 12.0625 182.348 7.98438C183.91 4.79688 185.285 2.65625 186.473 1.5625C186.91 1.14062 187.332 0.929688 187.738 0.929688C188.176 0.929688 188.738 1.1875 189.426 1.70312C190.207 2.34375 190.996 2.98438 191.793 3.625Z" fill="#F52500"/>
</g>
<defs>
<filter id="filter0_d_7_14" x="0.804688" y="0.929688" width="93.1512" height="48.4062" filterUnits="userSpaceOnUse" color-interpolation-filters="sRGB">
<feFlood flood-opacity="0" result="BackgroundImageFix"/>
<feColorMatrix in="SourceAlpha" type="matrix" values="0 0 0 0 0 0 0 0 0 0 0 0 0 0 0 0 0 0 127 0" result="hardAlpha"/>
<feOffset dy="4"/>
<feGaussianBlur stdDeviation="2"/>
<feComposite in2="hardAlpha" operator="out"/>
<feColorMatrix type="matrix" values="0 0 0 0 0 0 0 0 0 0 0 0 0 0 0 0 0 0 0.25 0"/>
<feBlend mode="normal" in2="BackgroundImageFix" result="effect1_dropShadow_7_14"/>
<feBlend mode="normal" in="SourceGraphic" in2="effect1_dropShadow_7_14" result="shape"/>
</filter>
<filter id="filter1_d_7_14" x="88.719" y="0.929688" width="107.355" height="47.8203" filterUnits="userSpaceOnUse" color-interpolation-filters="sRGB">
<feFlood flood-opacity="0" result="BackgroundImageFix"/>
<feColorMatrix in="SourceAlpha" type="matrix" values="0 0 0 0 0 0 0 0 0 0 0 0 0 0 0 0 0 0 127 0" result="hardAlpha"/>
<feOffset dy="4"/>
<feGaussianBlur stdDeviation="2"/>
<feComposite in2="hardAlpha" operator="out"/>
<feColorMatrix type="matrix" values="0 0 0 0 0 0 0 0 0 0 0 0 0 0 0 0 0 0 0.25 0"/>
<feBlend mode="normal" in2="BackgroundImageFix" result="effect1_dropShadow_7_14"/>
<feBlend mode="normal" in="SourceGraphic" in2="effect1_dropShadow_7_14" result="shape"/>
</filter>
</defs>
</svg>
